<svg xmlns="http://www.w3.org/2000/svg" viewBox="0 0 256 256" width="256" height="256">
  <defs>
    <linearGradient id="bg10" x1="0%" y1="0%" x2="100%" y2="100%">
      <stop offset="0%" style="stop-color:#1e1b4b"/>
      <stop offset="100%" style="stop-color:#312e81"/>
    </linearGradient>
  </defs>
  <rect width="256" height="256" rx="40" fill="url(#bg10)"/>
  <!-- Left vertical column (x: 48-84) -->
  <rect x="48" y="40" width="36" height="14" rx="4" fill="#c4b5fd" opacity="0.95"/>
  <rect x="48" y="62" width="36" height="14" rx="4" fill="#c4b5fd" opacity="0.9"/>
  <rect x="48" y="84" width="36" height="14" rx="4" fill="#a78bfa" opacity="0.85"/>
  <rect x="48" y="106" width="36" height="14" rx="4" fill="#a78bfa" opacity="0.8"/>
  <rect x="48" y="128" width="36" height="14" rx="4" fill="#8b5cf6" opacity="0.8"/>
  <rect x="48" y="150" width="36" height="14" rx="4" fill="#8b5cf6" opacity="0.8"/>
  <rect x="48" y="172" width="36" height="14" rx="4" fill="#c4b5fd" opacity="0.95"/>
  <!-- Diagonal bars (8px gap from each column, aligned to rows 2-6) -->
  <rect x="92" y="62" width="28" height="14" rx="4" fill="#a78bfa" opacity="0.8"/>
  <rect x="103" y="84" width="28" height="14" rx="4" fill="#a78bfa" opacity="0.75"/>
  <rect x="114" y="106" width="28" height="14" rx="4" fill="#8b5cf6" opacity="0.7"/>
  <rect x="125" y="128" width="28" height="14" rx="4" fill="#8b5cf6" opacity="0.7"/>
  <rect x="136" y="150" width="28" height="14" rx="4" fill="#7c3aed" opacity="0.75"/>
  <!-- Right vertical column (x: 172-208) -->
  <rect x="172" y="40" width="36" height="14" rx="4" fill="#c4b5fd" opacity="0.95"/>
  <rect x="172" y="62" width="36" height="14" rx="4" fill="#c4b5fd" opacity="0.9"/>
  <rect x="172" y="84" width="36" height="14" rx="4" fill="#a78bfa" opacity="0.85"/>
  <rect x="172" y="106" width="36" height="14" rx="4" fill="#a78bfa" opacity="0.8"/>
  <rect x="172" y="128" width="36" height="14" rx="4" fill="#8b5cf6" opacity="0.8"/>
  <rect x="172" y="150" width="36" height="14" rx="4" fill="#8b5cf6" opacity="0.8"/>
  <rect x="172" y="172" width="36" height="14" rx="4" fill="#c4b5fd" opacity="0.95"/>
  <!-- DN text -->
  <text x="128" y="224" font-family="SF Pro Display, Inter, system-ui, sans-serif" font-weight="700" font-size="28" fill="#c4b5fd" text-anchor="middle" opacity="0.9">DN</text>
</svg>
